<mxfile host="Electron" modified="2025-03-09T09:57:12.757Z" agent="Mozilla/5.0 (Windows NT 10.0; Win64; x64) AppleWebKit/537.36 (KHTML, like Gecko) draw.io/22.1.18 Chrome/120.0.6099.199 Electron/28.1.2 Safari/537.36" etag="8cEf_Xe1Yg_5ax_AaLtR" version="22.1.18" type="device">
  <diagram name="Page-1" id="9n51V0birsyVbleR57p-">
    <mxGraphModel dx="1050" dy="655" grid="1" gridSize="10" guides="1" tooltips="1" connect="1" arrows="1" fold="1" page="1" pageScale="1" pageWidth="827" pageHeight="1169" math="0" shadow="0">
      <root>
        <mxCell id="0" />
        <mxCell id="1" parent="0" />
        <mxCell id="2BwICHEU_G4UWTc_6JAI-1" value="&lt;span style=&quot;font-size: 14px;&quot;&gt;&lt;b&gt;&amp;nbsp; What Version Diagram&lt;/b&gt;&lt;/span&gt;" style="rounded=0;whiteSpace=wrap;html=1;fillColor=#f5f5f5;fontColor=#333333;strokeColor=#666666;align=left;" parent="1" vertex="1">
          <mxGeometry width="720" height="30" as="geometry" />
        </mxCell>
        <mxCell id="2BwICHEU_G4UWTc_6JAI-2" value="Â© Sindre Ditlefsen 09.03.2025" style="text;html=1;strokeColor=none;fillColor=none;align=right;verticalAlign=middle;whiteSpace=wrap;rounded=0;" parent="1" vertex="1">
          <mxGeometry x="460" width="250" height="30" as="geometry" />
        </mxCell>
        <mxCell id="q3a1O05Y6yr2lSj0xwcz-40" value="" style="endArrow=classic;html=1;rounded=0;exitX=1;exitY=0.5;exitDx=0;exitDy=0;" parent="1" edge="1">
          <mxGeometry width="50" height="50" relative="1" as="geometry">
            <mxPoint x="240" y="124.5" as="sourcePoint" />
            <mxPoint x="400" y="125" as="targetPoint" />
          </mxGeometry>
        </mxCell>
        <mxCell id="74tmJSUXC4xOxbuBVqUL-6" value="Check latest version" style="edgeLabel;html=1;align=center;verticalAlign=middle;resizable=0;points=[];" vertex="1" connectable="0" parent="q3a1O05Y6yr2lSj0xwcz-40">
          <mxGeometry x="-0.0758" y="4" relative="1" as="geometry">
            <mxPoint y="4" as="offset" />
          </mxGeometry>
        </mxCell>
        <mxCell id="74tmJSUXC4xOxbuBVqUL-2" value="Scheduler&#xa;Check Versions" style="shape=image;verticalLabelPosition=bottom;labelBackgroundColor=default;verticalAlign=top;aspect=fixed;imageAspect=0;image=data:image/png,iVBORw0KGgoAAAANSUhEUgAAADAAAAAwCAYAAABXAvmHAAAAwnpUWHRSYXcgcHJvZmlsZSB0eXBlIGV4aWYAAHjabVBBEsMgCLzzij5BAQk8xzTpTH/Q5xeVpLHtzrhZWWaDwP56PuDWgJmBy6JiIsnBxobVhaaB2jkn7txBYfl9qsNpoJfo06kS/Uc9nwHjU12VS5Dew1hnwzjy9SsIY7I2UdNbBFkEEQ4jR0Adz0piulyfsO5pho4DjVjnsX/ui29vK/4fQtwpU3ImkjEAtVOAqgvqbN7oTa6ZxLlQjjBfyL89HYA33K5ZEsnsw40AAAGDaUNDUElDQyBwcm9maWxlAAB4nH2RPUjDQBzFX1OlrVQc7CDikKF1souKOJYqFsFCaSu06mBy6Rc0MSQpLo6Ca8HBj8Wqg4uzrg6ugiD4AeIuOCm6SIn/SwotYjw47se7e4+7d4DQqjPV7EsAqmYZ2VRSLBRXxMAr/AghiBhCEjP1dG4hD8/xdQ8fX+/iPMv73J9jUCmZDPCJxAmmGxbxOvHMpqVz3ieOsKqkEJ8TTxh0QeJHrssuv3GuOCzwzIiRz84RR4jFSg/LPcyqhko8TRxVVI3yhYLLCuctzmq9wTr35C8Ml7TlHNdpjiGFRaSRgQgZDdRQh4U4rRopJrK0n/Twjzr+DLlkctXAyDGPDaiQHD/4H/zu1ixPTbpJ4STQ/2LbHzEgsAu0m7b9fWzb7RPA/wxcaV3/RguY/SS92dWiR8DQNnBx3dXkPeByBxh50iVDciQ/TaFcBt7P6JuKwPAtMLDq9tbZx+kDkKeulm6Ag0NgvELZax7vDvb29u+ZTn8/ZTVyobgFxgIAAA12aVRYdFhNTDpjb20uYWRvYmUueG1wAAAAAAA8P3hwYWNrZXQgYmVnaW49Iu+7vyIgaWQ9Ilc1TTBNcENlaGlIenJlU3pOVGN6a2M5ZCI/Pgo8eDp4bXBtZXRhIHhtbG5zOng9ImFkb2JlOm5zOm1ldGEvIiB4OnhtcHRrPSJYTVAgQ29yZSA0LjQuMC1FeGl2MiI+CiA8cmRmOlJERiB4bWxuczpyZGY9Imh0dHA6Ly93d3cudzMub3JnLzE5OTkvMDIvMjItcmRmLXN5bnRheC1ucyMiPgogIDxyZGY6RGVzY3JpcHRpb24gcmRmOmFib3V0PSIiCiAgICB4bWxuczp4bXBNTT0iaHR0cDovL25zLmFkb2JlLmNvbS94YXAvMS4wL21tLyIKICAgIHhtbG5zOnN0RXZ0PSJodHRwOi8vbnMuYWRvYmUuY29tL3hhcC8xLjAvc1R5cGUvUmVzb3VyY2VFdmVudCMiCiAgICB4bWxuczpkYz0iaHR0cDovL3B1cmwub3JnL2RjL2VsZW1lbnRzLzEuMS8iCiAgICB4bWxuczpHSU1QPSJodHRwOi8vd3d3LmdpbXAub3JnL3htcC8iCiAgICB4bWxuczp0aWZmPSJodHRwOi8vbnMuYWRvYmUuY29tL3RpZmYvMS4wLyIKICAgIHhtbG5zOnhtcD0iaHR0cDovL25zLmFkb2JlLmNvbS94YXAvMS4wLyIKICAgeG1wTU06RG9jdW1lbnRJRD0iZ2ltcDpkb2NpZDpnaW1wOmE0NWIzMTc4LTRlZDgtNDU1Ny04MDU4LWUyOGE0ZTgzNGJjZSIKICAgeG1wTU06SW5zdGFuY2VJRD0ieG1wLmlpZDpjYzZlMWU4ZC03MmQzLTRmYjgtYmUyZS0xMWM0YjM3NmNmMTYiCiAgIHhtcE1NOk9yaWdpbmFsRG9jdW1lbnRJRD0ieG1wLmRpZDplZGM0MTY0Ni04Y2U0LTQwZTItODU2MS0wOTJjOWQ0NmRkODUiCiAgIGRjOkZvcm1hdD0iaW1hZ2UvcG5nIgogICBHSU1QOkFQST0iMi4wIgogICBHSU1QOlBsYXRmb3JtPSJXaW5kb3dzIgogICBHSU1QOlRpbWVTdGFtcD0iMTc0MTUxMzYxMjc5MzE1NiIKICAgR0lNUDpWZXJzaW9uPSIyLjEwLjM2IgogICB0aWZmOk9yaWVudGF0aW9uPSIxIgogICB4bXA6Q3JlYXRvclRvb2w9IkdJTVAgMi4xMCIKICAgeG1wOk1ldGFkYXRhRGF0ZT0iMjAyNTowMzowOVQxMDo0Njo1MSswMTowMCIKICAgeG1wOk1vZGlmeURhdGU9IjIwMjU6MDM6MDlUMTA6NDY6NTErMDE6MDAiPgogICA8eG1wTU06SGlzdG9yeT4KICAgIDxyZGY6U2VxPgogICAgIDxyZGY6bGkKICAgICAgc3RFdnQ6YWN0aW9uPSJzYXZlZCIKICAgICAgc3RFdnQ6Y2hhbmdlZD0iLyIKICAgICAgc3RFdnQ6aW5zdGFuY2VJRD0ieG1wLmlpZDpmYzVhZmQ0Mi0yMDE4LTQ2ZGUtYjJjNy0yOTg5MjJkNTIzOTYiCiAgICAgIHN0RXZ0OnNvZnR3YXJlQWdlbnQ9IkdpbXAgMi4xMCAoV2luZG93cykiCiAgICAgIHN0RXZ0OndoZW49IjIwMjUtMDMtMDlUMTA6NDY6NTIiLz4KICAgIDwvcmRmOlNlcT4KICAgPC94bXBNTTpIaXN0b3J5PgogIDwvcmRmOkRlc2NyaXB0aW9uPgogPC9yZGY6UkRGPgo8L3g6eG1wbWV0YT4KICAgICAgICAgICAgICAgICAgICAgICAgICAgICAgICAgICAgICAgICAgICAgICAgICAgICAgICAgICAgICAgICAgICAgICAgICAgICAgICAgICAgICAgICAgICAgICAgICAgIAogICAgICAgICAgICAgICAgICAgICAgICAgICAgICAgICAgICAgICAgICAgICAgICAgICAgICAgICAgICAgICAgICAgICAgICAgICAgICAgICAgICAgICAgICAgICAgICAgICAgCiAgICAgICAgICAgICAgICAgICAgICAgICAgICAgICAgICAgICAgICAgICAgICAgICAgICAgICAgICAgICAgICAgICAgICAgICAgICAgICAgICAgICAgICAgICAgICAgICAgICAKICAgICAgICAgICAgICAgICAgICAgICAgICAgICAgICAgICAgICAgICAgICAgICAgICAgICAgICAgICAgICAgICAgICAgICAgICAgICAgICAgICAgICAgICAgICAgICAgICAgIAogICAgICAgICAgICAgICAgICAgICAgICAgICAgICAgICAgICAgICAgICAgICAgICAgICAgICAgICAgICAgICAgICAgICAgICAgICAgICAgICAgICAgICAgICAgICAgICAgICAgCiAgICAgICAgICAgICAgICAgICAgICAgICAgICAgICAgICAgICAgICAgICAgICAgICAgICAgICAgICAgICAgICAgICAgICAgICAgICAgICAgICAgICAgICAgICAgICAgICAgICAKICAgICAgICAgICAgICAgICAgICAgICAgICAgICAgICAgICAgICAgICAgICAgICAgICAgICAgICAgICAgICAgICAgICAgICAgICAgICAgICAgICAgICAgICAgICAgICAgICAgIAogICAgICAgICAgICAgICAgICAgICAgICAgICAgICAgICAgICAgICAgICAgICAgICAgICAgICAgICAgICAgICAgICAgICAgICAgICAgICAgICAgICAgICAgICAgICAgICAgICAgCiAgICAgICAgICAgICAgICAgICAgICAgICAgICAgICAgICAgICAgICAgICAgICAgICAgICAgICAgICAgICAgICAgICAgICAgICAgICAgICAgICAgICAgICAgICAgICAgICAgICAKICAgICAgICAgICAgICAgICAgICAgICAgICAgICAgICAgICAgICAgICAgICAgICAgICAgICAgICAgICAgICAgICAgICAgICAgICAgICAgICAgICAgICAgICAgICAgICAgICAgIAogICAgICAgICAgICAgICAgICAgICAgICAgICAgICAgICAgICAgICAgICAgICAgICAgICAgICAgICAgICAgICAgICAgICAgICAgICAgICAgICAgICAgICAgICAgICAgICAgICAgCiAgICAgICAgICAgICAgICAgICAgICAgICAgICAgICAgICAgICAgICAgICAgICAgICAgICAgICAgICAgICAgICAgICAgICAgICAgICAgICAgICAgICAgICAgICAgICAgICAgICAKICAgICAgICAgICAgICAgICAgICAgICAgICAgICAgICAgICAgICAgICAgICAgICAgICAgICAgICAgICAgICAgICAgICAgICAgICAgICAgICAgICAgICAgICAgICAgICAgICAgIAogICAgICAgICAgICAgICAgICAgICAgICAgICAgICAgICAgICAgICAgICAgICAgICAgICAgICAgICAgICAgICAgICAgICAgICAgICAgICAgICAgICAgICAgICAgICAgICAgICAgCiAgICAgICAgICAgICAgICAgICAgICAgICAgICAgICAgICAgICAgICAgICAgICAgICAgICAgICAgICAgICAgICAgICAgICAgICAgICAgICAgICAgICAgICAgICAgICAgICAgICAKICAgICAgICAgICAgICAgICAgICAgICAgICAgICAgICAgICAgICAgICAgICAgICAgICAgICAgICAgICAgICAgICAgICAgICAgICAgICAgICAgICAgICAgICAgICAgICAgICAgIAogICAgICAgICAgICAgICAgICAgICAgICAgICAgICAgICAgICAgICAgICAgICAgICAgICAgICAgICAgICAgICAgICAgICAgICAgICAgICAgICAgICAgICAgICAgICAgICAgICAgCiAgICAgICAgICAgICAgICAgICAgICAgICAgICAgICAgICAgICAgICAgICAgICAgICAgICAgICAgICAgICAgICAgICAgICAgICAgICAgICAgICAgICAgICAgICAgICAgICAgICAKICAgICAgICAgICAgICAgICAgICAgICAgICAgICAgICAgICAgICAgICAgICAgICAgICAgICAgICAgICAgICAgICAgICAgICAgICAgICAgICAgICAgICAgICAgICAgICAgICAgIAogICAgICAgICAgICAgICAgICAgICAgICAgICAgICAgICAgICAgICAgICAgICAgICAgICAgICAgICAgICAgICAgICAgICAgICAgICAgICAgICAgICAgICAgICAgICAgICAgICAgCiAgICAgICAgICAgICAgICAgICAgICAgICAgIAo8P3hwYWNrZXQgZW5kPSJ3Ij8+DNB3DwAAAAZiS0dEAAAASwC6rjiDzAAAAAlwSFlzAAALEwAACxMBAJqcGAAAAAd0SU1FB+kDCQkuNOJVE6YAAAZBSURBVGje7Zl7bFNVHMc/p+26cVfYhlMeQaKBgGQDEpMqhkdiwVdEgcaIJAbFSmEkPPQPNUwiGksEJS4qCBcrBhMEg0UDghIdCYhiSjCMh5CIGpnicwxW2vV5/cOzeTn2vY7EZL+kf5zTc8/9fn+v8/udC33SJ1dXPgrGRG/tHQjGROBIYftbCth8SiAYO56EM4FgbEYvgJ8GnMLgZCAYuyPf50Sem08FdgDVcupX4Ca3034x3XqvPyykcrr2N4CU7tGMDPuXA6eBG+RUBzDH7bR/3GMCEvwHQJVp+gIwyu20/2kCXAdMASYA9cAwoL8JUCtwAjgMHABOdhEKBGMacBYYbHrHZWB2LhIiB3iXBF9tmk4BK9xO+yqvP9wPmAUsA8YB5XlaPgq0AE3ATt2jRQLBmBdYB9hM6zqAh9xO+56CCQSCsduBgALeAFb+3m6sOvpT8h7gRQm8J9ICPDt6kGXPjYMsi4BXAatCYrbbad+bN4FAMGYBvgVGmaaTwMr9pxJvRBOsBh7PkQSi0g0AHIA9y9oU8JbNwtPT6m2PAK8olvgRGOl22pPqg7YslhmogH9u/6nElmiCT4Bb0zwTBr4CPgQOAT8DMfmfHRgOTJIudwtQoWRDbyLF+M9PJB6YWm8TwMsmfAMyKTubCy0C1srhiv2nEtujCfbKYDVLJ7AReFP3aGfy8RmvP1wHLAbmpbHMyTIrd0+ts7mBl+Tck26nfUMxQXwNwL7jiUTK4NM0mj8CeHWP9k0xzu/1h2+T5Mcqf31tEdx151ibFRBup/2votOoTJEbAK8SzO8D83WP1pHteZcvVA1EmxsdkQz71wBbgOnKXzqwMNPZUQiB+6RfmwN2GzBP92idOcDbgHPAJZkUdgPbmhsdIeUdlcB24F4lsGfqHm1X0QRknj+spMog4NI9WigXeUkgoiSLc8ByYGtzoyOlWOKgEmMtwATdo0WKrYVmKeAj0m1CPcj71wPvAOtdvlD3wad7tAvAAiBuWjtOYii8mJO+v0yZXq97tGMlqN2sEmyTyxeymEgckvFglmUSS8EWqFO0f1kGcyllPjBHmXtdHoJmK9QVQ2CKUtsc1D3adyUmYAVWuXyhSpMVjgFHTWvKJZaCCUxQxjt7qY8ZDjyo9k05sGQnIH2uXpk+1IuN3v3K+AtlXJ8pDixZiA0zjUOyiektGePyhfqZxj/I+qtLhmXCaslyPvRXCMSLAJZvfztQqYk6ZXHYJf0z7WXpLZW6fKFaYJNS25dcMpXThmwkKkwasOcJXMiyeTMwIk8cbabSG/leTWlqjEIskJI9bJdUKv1qJvDlwPPAvgLAA5xWir0bFMu1Skz5EZAV4AllemIO8KMl8BVKs5KPqAXbZGV8IlNVmi0GDqepi9IBt7p8obnAl9kOnCxyTlaiZpmRA0teBA4oR/okrz88UgFfKX19s9KC5itJYLm5vPb6w+OBm5Xe+kAxBE7KctYcBw3KmohMecVmMz+wVZlbrJQwLRJLYQSkzzUp0w1SQwDIen6JTJepAjWvA0uUnmAiMFdZ25StK8uluZ2KFfoBm7z+sMNEohNYKBv01jzAt8q1Dc2NjqjS0GwEyhTt7+yNlnI78KjaUrp8IYcsj6cDY0xx0SbvPncB7121lrInTb2sbcr/DUTR2dxYaZS6qbflItDRCeHO1Pc1lRbDXtZNWACzgRFefzjttYo8mCLFXKvE4hh/XEqdtZflLqWyrljwdli0dRhL2kLGWpsV69AaC2X/pdwptbW+FBdb8QT8ciFFPEmy1iGWVTvEumxWEDlcZ7FhsPa39pQtFIUyKwypvsISako1Xy22prlanAzMTHO12K358+0pEU/CgArBtVUiLgRPSOUYhbpQA7BWCGzXVVngosHlqJFqC6VeGFxjGZrmcrcf4JK/oi5328PGmUSKNf0rsNZWCYSgTN5Wx6WV87OAzArnzT2BYZBoCxlPWQRNNQ6BDLqSXa8DuyMxiMYNb5UmXhPiCsIXgCG6R4sWYgGzyeJCsLR2gNiw8bFuU+7y+sOfUaIPHN1x5w/rxj8H3TqT1RKZDspsMTAXWCMffAZ4N5Mf9vQTU4b9HgZWS0Uu1T3ajmKuFq2yrEgWeOtc0Ee+Ur+/T/qkT/5H8jdcUWci/F2s7gAAAABJRU5ErkJggg==;" vertex="1" parent="1">
          <mxGeometry x="30" y="101" width="39" height="39" as="geometry" />
        </mxCell>
        <mxCell id="74tmJSUXC4xOxbuBVqUL-3" value="Cloud Run&#xa;what-version" style="shape=image;verticalLabelPosition=bottom;labelBackgroundColor=default;verticalAlign=top;aspect=fixed;imageAspect=0;image=data:image/png,iVBORw0KGgoAAAANSUhEUgAAADAAAAAwCAYAAABXAvmHAAAAwnpUWHRSYXcgcHJvZmlsZSB0eXBlIGV4aWYAAHjabVBBEsMgCLzzij5BAQ08xzTpTH/Q5xeFpLHtzrhBdmeDwP56PuDWgZmByyJVa00GVlZsVkhytME58eABCsnuUx9OAa1FH6fU8B/9fAb4p1lVLkFyD2GdBeXIl68gjMn6RL3eIkgjiNCFHAHNn5WqynJ9wrqnGeIHOrHMY//cF9veVuw/hLhTpmRMVH0A6qcANStosJrRTFYzFeMyrNkX8m9PB+AN3UhZFmoIolwAAAGDaUNDUElDQyBwcm9maWxlAAB4nH2RPUjDQBzFX1OlrVQc7CDikKF1souKOJYqFsFCaSu06mBy6Rc0MSQpLo6Ca8HBj8Wqg4uzrg6ugiD4AeIuOCm6SIn/SwotYjw47se7e4+7d4DQqjPV7EsAqmYZ2VRSLBRXxMAr/AghiBhCEjP1dG4hD8/xdQ8fX+/iPMv73J9jUCmZDPCJxAmmGxbxOvHMpqVz3ieOsKqkEJ8TTxh0QeJHrssuv3GuOCzwzIiRz84RR4jFSg/LPcyqhko8TRxVVI3yhYLLCuctzmq9wTr35C8Ml7TlHNdpjiGFRaSRgQgZDdRQh4U4rRopJrK0n/Twjzr+DLlkctXAyDGPDaiQHD/4H/zu1ixPTbpJ4STQ/2LbHzEgsAu0m7b9fWzb7RPA/wxcaV3/RguY/SS92dWiR8DQNnBx3dXkPeByBxh50iVDciQ/TaFcBt7P6JuKwPAtMLDq9tbZx+kDkKeulm6Ag0NgvELZax7vDvb29u+ZTn8/ZTVyobgFxgIAAA12aVRYdFhNTDpjb20uYWRvYmUueG1wAAAAAAA8P3hwYWNrZXQgYmVnaW49Iu+7vyIgaWQ9Ilc1TTBNcENlaGlIenJlU3pOVGN6a2M5ZCI/Pgo8eDp4bXBtZXRhIHhtbG5zOng9ImFkb2JlOm5zOm1ldGEvIiB4OnhtcHRrPSJYTVAgQ29yZSA0LjQuMC1FeGl2MiI+CiA8cmRmOlJERiB4bWxuczpyZGY9Imh0dHA6Ly93d3cudzMub3JnLzE5OTkvMDIvMjItcmRmLXN5bnRheC1ucyMiPgogIDxyZGY6RGVzY3JpcHRpb24gcmRmOmFib3V0PSIiCiAgICB4bWxuczp4bXBNTT0iaHR0cDovL25zLmFkb2JlLmNvbS94YXAvMS4wL21tLyIKICAgIHhtbG5zOnN0RXZ0PSJodHRwOi8vbnMuYWRvYmUuY29tL3hhcC8xLjAvc1R5cGUvUmVzb3VyY2VFdmVudCMiCiAgICB4bWxuczpkYz0iaHR0cDovL3B1cmwub3JnL2RjL2VsZW1lbnRzLzEuMS8iCiAgICB4bWxuczpHSU1QPSJodHRwOi8vd3d3LmdpbXAub3JnL3htcC8iCiAgICB4bWxuczp0aWZmPSJodHRwOi8vbnMuYWRvYmUuY29tL3RpZmYvMS4wLyIKICAgIHhtbG5zOnhtcD0iaHR0cDovL25zLmFkb2JlLmNvbS94YXAvMS4wLyIKICAgeG1wTU06RG9jdW1lbnRJRD0iZ2ltcDpkb2NpZDpnaW1wOjkyMTNjNTRkLWE1MjAtNGIwZC1hYzI5LTgzNmM2YjQ4OWM3MiIKICAgeG1wTU06SW5zdGFuY2VJRD0ieG1wLmlpZDo2YjU1ZjVhNC1mNWY2LTRlNDYtYjk0Ny04NDgwMTk1ZjkyMTAiCiAgIHhtcE1NOk9yaWdpbmFsRG9jdW1lbnRJRD0ieG1wLmRpZDo0Y2I1ZDJiMC1lZGJmLTRlYjUtODdmOC1kMTQxNGRkMzlmM2MiCiAgIGRjOkZvcm1hdD0iaW1hZ2UvcG5nIgogICBHSU1QOkFQST0iMi4wIgogICBHSU1QOlBsYXRmb3JtPSJXaW5kb3dzIgogICBHSU1QOlRpbWVTdGFtcD0iMTc0MTUxMzU1ODE3ODAxNCIKICAgR0lNUDpWZXJzaW9uPSIyLjEwLjM2IgogICB0aWZmOk9yaWVudGF0aW9uPSIxIgogICB4bXA6Q3JlYXRvclRvb2w9IkdJTVAgMi4xMCIKICAgeG1wOk1ldGFkYXRhRGF0ZT0iMjAyNTowMzowOVQxMDo0NTo1NiswMTowMCIKICAgeG1wOk1vZGlmeURhdGU9IjIwMjU6MDM6MDlUMTA6NDU6NTYrMDE6MDAiPgogICA8eG1wTU06SGlzdG9yeT4KICAgIDxyZGY6U2VxPgogICAgIDxyZGY6bGkKICAgICAgc3RFdnQ6YWN0aW9uPSJzYXZlZCIKICAgICAgc3RFdnQ6Y2hhbmdlZD0iLyIKICAgICAgc3RFdnQ6aW5zdGFuY2VJRD0ieG1wLmlpZDo4ZDBkODEwYi1mNjczLTQ1NWEtYjIzNC1jOGQ1OTgwMTU2MzkiCiAgICAgIHN0RXZ0OnNvZnR3YXJlQWdlbnQ9IkdpbXAgMi4xMCAoV2luZG93cykiCiAgICAgIHN0RXZ0OndoZW49IjIwMjUtMDMtMDlUMTA6NDU6NTgiLz4KICAgIDwvcmRmOlNlcT4KICAgPC94bXBNTTpIaXN0b3J5PgogIDwvcmRmOkRlc2NyaXB0aW9uPgogPC9yZGY6UkRGPgo8L3g6eG1wbWV0YT4KICAgICAgICAgICAgICAgICAgICAgICAgICAgICAgICAgICAgICAgICAgICAgICAgICAgICAgICAgICAgICAgICAgICAgICAgICAgICAgICAgICAgICAgICAgICAgICAgICAgIAogICAgICAgICAgICAgICAgICAgICAgICAgICAgICAgICAgICAgICAgICAgICAgICAgICAgICAgICAgICAgICAgICAgICAgICAgICAgICAgICAgICAgICAgICAgICAgICAgICAgCiAgICAgICAgICAgICAgICAgICAgICAgICAgICAgICAgICAgICAgICAgICAgICAgICAgICAgICAgICAgICAgICAgICAgICAgICAgICAgICAgICAgICAgICAgICAgICAgICAgICAKICAgICAgICAgICAgICAgICAgICAgICAgICAgICAgICAgICAgICAgICAgICAgICAgICAgICAgICAgICAgICAgICAgICAgICAgICAgICAgICAgICAgICAgICAgICAgICAgICAgIAogICAgICAgICAgICAgICAgICAgICAgICAgICAgICAgICAgICAgICAgICAgICAgICAgICAgICAgICAgICAgICAgICAgICAgICAgICAgICAgICAgICAgICAgICAgICAgICAgICAgCiAgICAgICAgICAgICAgICAgICAgICAgICAgICAgICAgICAgICAgICAgICAgICAgICAgICAgICAgICAgICAgICAgICAgICAgICAgICAgICAgICAgICAgICAgICAgICAgICAgICAKICAgICAgICAgICAgICAgICAgICAgICAgICAgICAgICAgICAgICAgICAgICAgICAgICAgICAgICAgICAgICAgICAgICAgICAgICAgICAgICAgICAgICAgICAgICAgICAgICAgIAogICAgICAgICAgICAgICAgICAgICAgICAgICAgICAgICAgICAgICAgICAgICAgICAgICAgICAgICAgICAgICAgICAgICAgICAgICAgICAgICAgICAgICAgICAgICAgICAgICAgCiAgICAgICAgICAgICAgICAgICAgICAgICAgICAgICAgICAgICAgICAgICAgICAgICAgICAgICAgICAgICAgICAgICAgICAgICAgICAgICAgICAgICAgICAgICAgICAgICAgICAKICAgICAgICAgICAgICAgICAgICAgICAgICAgICAgICAgICAgICAgICAgICAgICAgICAgICAgICAgICAgICAgICAgICAgICAgICAgICAgICAgICAgICAgICAgICAgICAgICAgIAogICAgICAgICAgICAgICAgICAgICAgICAgICAgICAgICAgICAgICAgICAgICAgICAgICAgICAgICAgICAgICAgICAgICAgICAgICAgICAgICAgICAgICAgICAgICAgICAgICAgCiAgICAgICAgICAgICAgICAgICAgICAgICAgICAgICAgICAgICAgICAgICAgICAgICAgICAgICAgICAgICAgICAgICAgICAgICAgICAgICAgICAgICAgICAgICAgICAgICAgICAKICAgICAgICAgICAgICAgICAgICAgICAgICAgICAgICAgICAgICAgICAgICAgICAgICAgICAgICAgICAgICAgICAgICAgICAgICAgICAgICAgICAgICAgICAgICAgICAgICAgIAogICAgICAgICAgICAgICAgICAgICAgICAgICAgICAgICAgICAgICAgICAgICAgICAgICAgICAgICAgICAgICAgICAgICAgICAgICAgICAgICAgICAgICAgICAgICAgICAgICAgCiAgICAgICAgICAgICAgICAgICAgICAgICAgICAgICAgICAgICAgICAgICAgICAgICAgICAgICAgICAgICAgICAgICAgICAgICAgICAgICAgICAgICAgICAgICAgICAgICAgICAKICAgICAgICAgICAgICAgICAgICAgICAgICAgICAgICAgICAgICAgICAgICAgICAgICAgICAgICAgICAgICAgICAgICAgICAgICAgICAgICAgICAgICAgICAgICAgICAgICAgIAogICAgICAgICAgICAgICAgICAgICAgICAgICAgICAgICAgICAgICAgICAgICAgICAgICAgICAgICAgICAgICAgICAgICAgICAgICAgICAgICAgICAgICAgICAgICAgICAgICAgCiAgICAgICAgICAgICAgICAgICAgICAgICAgICAgICAgICAgICAgICAgICAgICAgICAgICAgICAgICAgICAgICAgICAgICAgICAgICAgICAgICAgICAgICAgICAgICAgICAgICAKICAgICAgICAgICAgICAgICAgICAgICAgICAgICAgICAgICAgICAgICAgICAgICAgICAgICAgICAgICAgICAgICAgICAgICAgICAgICAgICAgICAgICAgICAgICAgICAgICAgIAogICAgICAgICAgICAgICAgICAgICAgICAgICAgICAgICAgICAgICAgICAgICAgICAgICAgICAgICAgICAgICAgICAgICAgICAgICAgICAgICAgICAgICAgICAgICAgICAgICAgCiAgICAgICAgICAgICAgICAgICAgICAgICAgIAo8P3hwYWNrZXQgZW5kPSJ3Ij8+OL4NMQAAAAZiS0dEAAAASwC6rjiDzAAAAAlwSFlzAAALEwAACxMBAJqcGAAAAAd0SU1FB+kDCQktOi7AbWIAAAQNSURBVGje7ZldaBxVFMd/u9lMIp1StPjxYESroFi1CB3UNFabFpTWoJm2Yh+1Dz4pKNVS59UoWumDIPpcKIptby2tH2nj9MP4Ua4gsVoUNBXji4pCyUqTa9LxwRtYxntn7+zOJhH2DwvLuWfOnv/c/5xz7iy00UYb/2uUbAtCqmXANmBfGHiTWUGEVD6wOgy8k4uGgE5sDLgc2A3sDQPvgsWvBBwHRoA9YeCp+SJQrrP+MdADvA6cFVI9JaRamnYKAy8BjgAvAUJIdc1iITBS832OyJiQaoXB9yNgCtgEfCakWrcYCHwJVFO2G4DQsAvfA9/U+HwopNoppOpcSAJ/AucM9kGL/9s137uAl7Wkrl4QAmHgzQCfG5buEFJdZ7AfAqZTReIhLan7FmIHAE4DScrmA30G318AabCvAIaFVM8VLSlXAn8b7BstO3bEEqcLeAU4WKSkXAj8AYwZ7A8IqboN9oPATEbfGQA+LUpSdQnoGm/qsMuBtQb7OHCmTtgbdZXa0aykyo5+o5a7uclC+IBDzMuAV4H9QqqrWk3gK0M/AFgnpOqyNLWLjqPMw1pS97aMQBh4E8B5w9KtwPUG/++Ab3PkcRNwTEj1rJCq0oodmJuL0ujQdd6Ed3LezG7gNS2pK1tBYMS2QbZhFsg7lZaAR3Tj6yuagAT+MthvF1L1GOwTlqbmKqnjQqpn6kkqDwHbXLTU1JV1UzvaRIWck9S7WZJyJhAG3kyS8EWSgOGz0XLZgSRh1nKNy6ecJAwmCaP7z6he0w/keuLfGlGUSu7HujeOKTrKNI0S0GmJ40ygf6hamU24+z9j3b/4wGRMYMvMJTqayP0ScBh4cniX/3uzz8AVuu6nMWnq1P1D1UpGiXXBFLADeDSOzMnnlVAALDHYz8aRP2Gw9+hrGsEPwONx5I8WWUY3ZNR7W3/wciaeAO8BvS7J5yWw3mCbzSiVjzUoma1ZkmlIQv1D1R59UE/jHPCTwf8WYGVOyTwRR/4nrZpG79THyDROxJE/bbA/qMdlF8kcBtY0knweAn2WH3/fcPdLwBaHmBeB57Vkfmu0VFUc5FMC7rccNU9bDvB31Qn7I7A9jvxT83EmXg6sMtiH48ifMtg3Z9yYuVeQa4pI3pXAWqDTpfvq5jVgiTMN7AQ2x5H/a1FvJSqOBNLjTtVyTr7W0rzGdZU5RcEo15t/gHsMS1/Hkf+zwT6o3//USuaobkyFJ+8iIdv8c8jivy0lmV1AWKRk8kpotaH+nzeND/1D1ZuB22p8tseRf4IWo94ObEgdEZ8GVsWRP25pXt26N/TOR/IuO7BeJ74b2BtH/oWMXjEAvADsiSN/3v5iqmQ8wMuAN4F9ceRP1omzBHgxjvyTtNFGG23kwT/6EHPr+GttLAAAAABJRU5ErkJggg==;" vertex="1" parent="1">
          <mxGeometry x="180" y="101" width="39" height="39" as="geometry" />
        </mxCell>
        <mxCell id="74tmJSUXC4xOxbuBVqUL-4" value="" style="endArrow=classic;html=1;rounded=0;exitX=1;exitY=0.5;exitDx=0;exitDy=0;entryX=0;entryY=0.5;entryDx=0;entryDy=0;" edge="1" parent="1" source="74tmJSUXC4xOxbuBVqUL-2" target="74tmJSUXC4xOxbuBVqUL-3">
          <mxGeometry width="50" height="50" relative="1" as="geometry">
            <mxPoint x="490" y="130" as="sourcePoint" />
            <mxPoint x="540" y="80" as="targetPoint" />
          </mxGeometry>
        </mxCell>
        <UserObject label="Python: https://www.python.org/ftp/python/" link="https://www.python.org/ftp/python/" id="74tmJSUXC4xOxbuBVqUL-5">
          <mxCell style="text;html=1;strokeColor=none;fillColor=none;align=left;verticalAlign=middle;whiteSpace=wrap;rounded=0;" vertex="1" parent="1">
            <mxGeometry x="430" y="80" width="240" height="30" as="geometry" />
          </mxCell>
        </UserObject>
        <UserObject label="Nodejs:&amp;nbsp;https://nodejs.org/download/release/" link="https://www.python.org/ftp/python/" id="74tmJSUXC4xOxbuBVqUL-7">
          <mxCell style="text;html=1;strokeColor=none;fillColor=none;align=left;verticalAlign=middle;whiteSpace=wrap;rounded=0;" vertex="1" parent="1">
            <mxGeometry x="430" y="110" width="240" height="30" as="geometry" />
          </mxCell>
        </UserObject>
        <UserObject label="Git:&amp;nbsp;https://github.com/git-for-windows/git-for-windows.github.io/blob/main/latest-64-bit-installer.url" link="https://www.python.org/ftp/python/" id="74tmJSUXC4xOxbuBVqUL-8">
          <mxCell style="text;html=1;strokeColor=none;fillColor=none;align=left;verticalAlign=middle;whiteSpace=wrap;rounded=0;" vertex="1" parent="1">
            <mxGeometry x="430" y="140" width="280" height="30" as="geometry" />
          </mxCell>
        </UserObject>
        <mxCell id="74tmJSUXC4xOxbuBVqUL-10" value="" style="endArrow=classic;html=1;rounded=0;" edge="1" parent="1">
          <mxGeometry width="50" height="50" relative="1" as="geometry">
            <mxPoint x="410" y="200" as="sourcePoint" />
            <mxPoint x="240" y="200" as="targetPoint" />
          </mxGeometry>
        </mxCell>
        <mxCell id="74tmJSUXC4xOxbuBVqUL-11" value="x.y.z" style="edgeLabel;html=1;align=center;verticalAlign=middle;resizable=0;points=[];" vertex="1" connectable="0" parent="74tmJSUXC4xOxbuBVqUL-10">
          <mxGeometry x="0.3224" y="1" relative="1" as="geometry">
            <mxPoint x="22" as="offset" />
          </mxGeometry>
        </mxCell>
        <mxCell id="74tmJSUXC4xOxbuBVqUL-12" value="PostgreSQL" style="shape=image;verticalLabelPosition=bottom;labelBackgroundColor=default;verticalAlign=top;aspect=fixed;imageAspect=0;image=data:image/png,iVBORw0KGgoAAAANSUhEUgAAAIAAAACACAYAAADDPmHLAAAAwXpUWHRSYXcgcHJvZmlsZSB0eXBlIGV4aWYAAHjabVDbEQMhCPynipSggK9yvOQykw5Sflbhbs4k6wgr4IrQ/n496TbAUUlTqbnlHABt2riD1GDo08ag004cKZyXOJ0JRkjgxS9krz/i8RQw18HSVejuiW1NNHX9+iXE5mR0NPjDhZoLCVsiukC3b4Xcarl+YdvDimqbhtG6tv1zLpjeI+EdYd4lSoAVydaAjJ1IOohM21CIIvCE1cGLi2Eg/+Z0gD7rj1kezsUJBAAAAYRpQ0NQSUNDIHByb2ZpbGUAAHicfZE9SMNAGIbfppWqVBzsIOKQoTrZRUUdSxWLYKG0FVp1MLn0D5o0JCkujoJrwcGfxaqDi7OuDq6CIPgD4i44KbpIid8lhRYx3nHcw3vf+3L3HSA0q0w1AzFA1SwjnYiLufyqGHyFH300ZxGQmKknM4tZeI6ve/j4fhflWd51f44BpWAywCcSx5huWMQbxDObls55nzjMypJCfE48YdAFiR+5Lrv8xrnksMAzw0Y2PU8cJhZLXSx3MSsbKvE0cURRNcoXci4rnLc4q9U6a9+TvzBU0FYyXKc1igSWkEQKImTUUUEVFqK0a6SYSNN53MM/4vhT5JLJVQEjxwJqUCE5fvA/+N1bszg16SaF4kDPi21/jAHBXaDVsO3vY9tunQD+Z+BK6/hrTWDuk/RGR4scAYPbwMV1R5P3gMsdYPhJlwzJkfy0hGIReD+jb8oDQ7dA/5rbt/Y5Th+ALPVq+QY4OATGS5S97vHu3u6+/VvT7t8PiDNyr6hIsAgAAA12aVRYdFhNTDpjb20uYWRvYmUueG1wAAAAAAA8P3hwYWNrZXQgYmVnaW49Iu+7vyIgaWQ9Ilc1TTBNcENlaGlIenJlU3pOVGN6a2M5ZCI/Pgo8eDp4bXBtZXRhIHhtbG5zOng9ImFkb2JlOm5zOm1ldGEvIiB4OnhtcHRrPSJYTVAgQ29yZSA0LjQuMC1FeGl2MiI+CiA8cmRmOlJERiB4bWxuczpyZGY9Imh0dHA6Ly93d3cudzMub3JnLzE5OTkvMDIvMjItcmRmLXN5bnRheC1ucyMiPgogIDxyZGY6RGVzY3JpcHRpb24gcmRmOmFib3V0PSIiCiAgICB4bWxuczp4bXBNTT0iaHR0cDovL25zLmFkb2JlLmNvbS94YXAvMS4wL21tLyIKICAgIHhtbG5zOnN0RXZ0PSJodHRwOi8vbnMuYWRvYmUuY29tL3hhcC8xLjAvc1R5cGUvUmVzb3VyY2VFdmVudCMiCiAgICB4bWxuczpkYz0iaHR0cDovL3B1cmwub3JnL2RjL2VsZW1lbnRzLzEuMS8iCiAgICB4bWxuczpHSU1QPSJodHRwOi8vd3d3LmdpbXAub3JnL3htcC8iCiAgICB4bWxuczp0aWZmPSJodHRwOi8vbnMuYWRvYmUuY29tL3RpZmYvMS4wLyIKICAgIHhtbG5zOnhtcD0iaHR0cDovL25zLmFkb2JlLmNvbS94YXAvMS4wLyIKICAgeG1wTU06RG9jdW1lbnRJRD0iZ2ltcDpkb2NpZDpnaW1wOjE3NTExOTUzLTFjMjEtNDQ5ZS1iNTkxLWEzMDNhN2JjZTY3ZiIKICAgeG1wTU06SW5zdGFuY2VJRD0ieG1wLmlpZDo3Nzk5NmMzOC05ZTQ3LTRjNWEtODg2My05YzliY2YxN2NlYjYiCiAgIHhtcE1NOk9yaWdpbmFsRG9jdW1lbnRJRD0ieG1wLmRpZDphNmRlYjdjMy0xZDVhLTQ1OWQtOGIwZS1mN2RlZTA5MjZmYjkiCiAgIGRjOkZvcm1hdD0iaW1hZ2UvcG5nIgogICBHSU1QOkFQST0iMi4wIgogICBHSU1QOlBsYXRmb3JtPSJXaW5kb3dzIgogICBHSU1QOlRpbWVTdGFtcD0iMTc0MTUxNDExODc1MjM4MSIKICAgR0lNUDpWZXJzaW9uPSIyLjEwLjM2IgogICB0aWZmOk9yaWVudGF0aW9uPSIxIgogICB4bXA6Q3JlYXRvclRvb2w9IkdJTVAgMi4xMCIKICAgeG1wOk1ldGFkYXRhRGF0ZT0iMjAyNTowMzowOVQxMDo1NToxNyswMTowMCIKICAgeG1wOk1vZGlmeURhdGU9IjIwMjU6MDM6MDlUMTA6NTU6MTcrMDE6MDAiPgogICA8eG1wTU06SGlzdG9yeT4KICAgIDxyZGY6U2VxPgogICAgIDxyZGY6bGkKICAgICAgc3RFdnQ6YWN0aW9uPSJzYXZlZCIKICAgICAgc3RFdnQ6Y2hhbmdlZD0iLyIKICAgICAgc3RFdnQ6aW5zdGFuY2VJRD0ieG1wLmlpZDphOTNmYzQ5MC1lMjRiLTRhNzQtYTEwNi1kMTY4ZDAyNzMxZjAiCiAgICAgIHN0RXZ0OnNvZnR3YXJlQWdlbnQ9IkdpbXAgMi4xMCAoV2luZG93cykiCiAgICAgIHN0RXZ0OndoZW49IjIwMjUtMDMtMDlUMTA6NTU6MTgiLz4KICAgIDwvcmRmOlNlcT4KICAgPC94bXBNTTpIaXN0b3J5PgogIDwvcmRmOkRlc2NyaXB0aW9uPgogPC9yZGY6UkRGPgo8L3g6eG1wbWV0YT4KICAgICAgICAgICAgICAgICAgICAgICAgICAgICAgICAgICAgICAgICAgICAgICAgICAgICAgICAgICAgICAgICAgICAgICAgICAgICAgICAgICAgICAgICAgICAgICAgICAgIAogICAgICAgICAgICAgICAgICAgICAgICAgICAgICAgICAgICAgICAgICAgICAgICAgICAgICAgICAgICAgICAgICAgICAgICAgICAgICAgICAgICAgICAgICAgICAgICAgICAgCiAgICAgICAgICAgICAgICAgICAgICAgICAgICAgICAgICAgICAgICAgICAgICAgICAgICAgICAgICAgICAgICAgICAgICAgICAgICAgICAgICAgICAgICAgICAgICAgICAgICAKICAgICAgICAgICAgICAgICAgICAgICAgICAgICAgICAgICAgICAgICAgICAgICAgICAgICAgICAgICAgICAgICAgICAgICAgICAgICAgICAgICAgICAgICAgICAgICAgICAgIAogICAgICAgICAgICAgICAgICAgICAgICAgICAgICAgICAgICAgICAgICAgICAgICAgICAgICAgICAgICAgICAgICAgICAgICAgICAgICAgICAgICAgICAgICAgICAgICAgICAgCiAgICAgICAgICAgICAgICAgICAgICAgICAgICAgICAgICAgICAgICAgICAgICAgICAgICAgICAgICAgICAgICAgICAgICAgICAgICAgICAgICAgICAgICAgICAgICAgICAgICAKICAgICAgICAgICAgICAgICAgICAgICAgICAgICAgICAgICAgICAgICAgICAgICAgICAgICAgICAgICAgICAgICAgICAgICAgICAgICAgICAgICAgICAgICAgICAgICAgICAgIAogICAgICAgICAgICAgICAgICAgICAgICAgICAgICAgICAgICAgICAgICAgICAgICAgICAgICAgICAgICAgICAgICAgICAgICAgICAgICAgICAgICAgICAgICAgICAgICAgICAgCiAgICAgICAgICAgICAgICAgICAgICAgICAgICAgICAgICAgICAgICAgICAgICAgICAgICAgICAgICAgICAgICAgICAgICAgICAgICAgICAgICAgICAgICAgICAgICAgICAgICAKICAgICAgICAgICAgICAgICAgICAgICAgICAgICAgICAgICAgICAgICAgICAgICAgICAgICAgICAgICAgICAgICAgICAgICAgICAgICAgICAgICAgICAgICAgICAgICAgICAgIAogICAgICAgICAgICAgICAgICAgICAgICAgICAgICAgICAgICAgICAgICAgICAgICAgICAgICAgICAgICAgICAgICAgICAgICAgICAgICAgICAgICAgICAgICAgICAgICAgICAgCiAgICAgICAgICAgICAgICAgICAgICAgICAgICAgICAgICAgICAgICAgICAgICAgICAgICAgICAgICAgICAgICAgICAgICAgICAgICAgICAgICAgICAgICAgICAgICAgICAgICAKICAgICAgICAgICAgICAgICAgICAgICAgICAgICAgICAgICAgICAgICAgICAgICAgICAgICAgICAgICAgICAgICAgICAgICAgICAgICAgICAgICAgICAgICAgICAgICAgICAgIAogICAgICAgICAgICAgICAgICAgICAgICAgICAgICAgICAgICAgICAgICAgICAgICAgICAgICAgICAgICAgICAgICAgICAgICAgICAgICAgICAgICAgICAgICAgICAgICAgICAgCiAgICAgICAgICAgICAgICAgICAgICAgICAgICAgICAgICAgICAgICAgICAgICAgICAgICAgICAgICAgICAgICAgICAgICAgICAgICAgICAgICAgICAgICAgICAgICAgICAgICAKICAgICAgICAgICAgICAgICAgICAgICAgICAgICAgICAgICAgICAgICAgICAgICAgICAgICAgICAgICAgICAgICAgICAgICAgICAgICAgICAgICAgICAgICAgICAgICAgICAgIAogICAgICAgICAgICAgICAgICAgICAgICAgICAgICAgICAgICAgICAgICAgICAgICAgICAgICAgICAgICAgICAgICAgICAgICAgICAgICAgICAgICAgICAgICAgICAgICAgICAgCiAgICAgICAgICAgICAgICAgICAgICAgICAgICAgICAgICAgICAgICAgICAgICAgICAgICAgICAgICAgICAgICAgICAgICAgICAgICAgICAgICAgICAgICAgICAgICAgICAgICAKICAgICAgICAgICAgICAgICAgICAgICAgICAgICAgICAgICAgICAgICAgICAgICAgICAgICAgICAgICAgICAgICAgICAgICAgICAgICAgICAgICAgICAgICAgICAgICAgICAgIAogICAgICAgICAgICAgICAgICAgICAgICAgICAgICAgICAgICAgICAgICAgICAgICAgICAgICAgICAgICAgICAgICAgICAgICAgICAgICAgICAgICAgICAgICAgICAgICAgICAgCiAgICAgICAgICAgICAgICAgICAgICAgICAgIAo8P3hwYWNrZXQgZW5kPSJ3Ij8+QtNksQAAAAZiS0dEAAAASwC6rjiDzAAAAAlwSFlzAAALEwAACxMBAJqcGAAAAAd0SU1FB+kDCQk3EqtYP0MAABGCSURBVHja7Z17mBTllcZ/X81Mz0x3D3IRZSWRaGC9xEtW6dF1zY3ouuuTVachUWNEpIcG4yWJaxLDgAzgICrRRY1IzzSLGOMtFNH12XiBwcdVIxQmJmjkWVDXGBQwIMhMT6Ya+uwfVT1ORoGume7q6p56n4d/mO6qr7/z1lfnO997zgEfPnz48OHDhw8fPnz48OHDhw8fPnz4KGs0tnWNPndB5+jBPAdqMP7oacnUCAXXC1zz1vYMItwD3NHeFN7pE6CMEU92hkF9F7gBGCmATQCAD4BFInLv2ll1HT4BysrwXdUgVwBNwNHZ/+9DgCz+BLSguL99ZrjbJ0BJL/WdlQo1EWgGju/79wMQIItNQHMGWflcU90+nwAl9cSnNOCfgfnA6Qf6nYcgQPYjrwCzgWfam8IZnwDeNrwC/tE2/NcO9ftyIEDvj64FZiP8pn1WWMplzrQyMv7JwErgeWBCnsmt7Gs+j2LlhJaOk/0VwDuGP9Zeor8NBJx818EK0Bcm8AtgfntT+C2fAMUx/CjgRmAaEOzPNQZAgCxSQCuohe1NoW0+Adwx/DDge/a/oQO5Vh4IkMVuYDHI4vamug99AhRkS5cKKpgO/AgYlY9r5pEAWWwDblPC0jWzwimfAHl54jsDoC6z3/PH5PPaBSBAFm/bO5EH25vCpk+A/hi+7a8VqMyFWEGcgnjdBSRAFhuBZk20x1fPCu73CZADpidTSqwt13zgzEKO0QUCZG/zsh1DaPdaDMEzBLCDOONtw5/rRozCJQJkkQGeBWYLbFjb5A0iaB4x/gnAw8BLwHkujms3wm4X5/o84CUFD09o6Thh0K8A8bbUGBRNwGSg2sVbdwIJ4NYt2zIAPwbiQMjFMXQDK4CW9qbwO4OKAPFlqZEIPwSuAsIu3toEfg7cnIgF3+79hwktHccAs4Dv4DCiOEB0AEuA29ubwh+UNQHiydQQ4FrgB8AIF2+9H/gV0JyIBV872AcntHScZO88LgIqXBzjTuBOhdy9pqnuo7IiQDyZqgWmAj8B3NTgZYB2YLZSrFs6NZiT43XOzXtVRqkzbId0gsu+0lbgFlEsWzsz3FXyBFiy2hyzpzPz7Ns7M+PEPb9XAAMreLQ6EQv26xx/QkuHBpxjEyHi1gOjgMOCanNtgHMfvDpUUP+g0oUfM2zcUdrYo4Yr3tyeYdseocA8+CPQrET0pY2hAQVfbAHIM19dsHeNJipqvxpOLOTgw9WK4WFFoIqxnd0yDChtAmQZHa5RnDqmgs91Clu2Z/igI+80eAdoEaVWtE6tzauW77mZdfuBx77WsvcJhZqMpS0ck897BAMwPKyoCbjrl1fiMg4LKU47toJde4XN2zLs7howEXYAt4O6LxGrLaiad21TXTfQ+vWWjocEZgA/BI4YyDVrqizDB6uLsyOvLMZNFTCiTjE8XMGOPRk2bxc6uh0TYQ9Yev5ELLjLzfGvaQp3AIsmtHQsA64HrgEOc3KNQAUMr1OEalRRgzGVRbw3SsGRQzVGDoH3P8ywZUeGrvQhv9YFJBEWJhqDW4s5/vam8C5g1oQFHUsQbgRiQO1BJ1yznvi6WoXyQCC+Eg9A02D0CI0jh2ps3ZXhzR0ZzE+6b2mscPG8RCy4BQ+hfWZ4K3DthJaOxcBNwCVAVe/PVGgwLKQYElRoHjqC85QotLICxozUOPu4SsYdoVGh9ezlnwDqgSu8Zvw+K8KWTIW6wh7rE0BGUzA8pDj6cI2hIW8Z3zMrwCfej5Xw+VEao4crPkrRVlfLdZedXV0SWTrP3RgS4NUrE53fMtPcVV2l4pUV3h1vpZcnsyagqAkQB87UDXOO0tR/NZxetd/LY57e+tcK0TL/BsytquAUrxO2ktLAKYAuGXlJN8zZwHPRSMBTwgpbz/BVITMfOIsS0VuWCgGyu8d/AlYDT+mGeROK30bHF5cItoLpNGAe8C+UWLJNKWYGacD5wMsID+qGeVyxBjItmTpO4EEsydf5pTiflZQuKoFLgQbdMP8T1IJopOrPLi33nwFmAlcCNZT4JJY6aoCrQC7TDfNnAj+dGAnsLJDhRwD/DlwNDCmDuSsLAmQxBPiJgkbdMBcB90YjgY78GP5vK4uU0ZwV/p21PyPvA89gBXTcwEjgVuB13TDjupHut9Zw2rKu6ngyFQf1un1Nt4yfAZ4R1PtueNYFh26YGh9r/c9weYv0BtAsovSJ9VU5VfqwK4tkz//dVO8KsA6YjaI9MTWYKQsCZLFqXbpCNGmwJ/YLLk+sAdwkop6dWF+VOcCWThMrJ2EeLiqAbLwONAvaqtZYjWvBrqIEK/T16QBKLsdS4X7OxVv3aARRrMvGEOy9fLE0gP8H3Aw8kIgFXc8jLGq0SjfSIZAZWBm/R7h4a0slLMx5auM+gLm4rwLeAdxmC1k6i2UDT4QrdcMcjiUVvxaHwooBvRcE89nX9pERV/MA9gB3C3Jnayy0q9hz76l4tW6YoyE3YUWeCIBNADfgGSGLZwnQ4ywa5jixhBUX00dYUYIESAOPYAlZNg+6OMDK9elae4nPGQ2RwOaMxmR7y/ikizGEfDucTwJniKjJTo0fT6aG2wk1BUWlC2vMKOAl3TDvAJbkGp2bdHpAgN/pRvcFoL5se+hn4/1jVgFewEpKeT4RC4pDw4exciavB3UWVrWR0n0FrDTSxyhks+1hvwO0KFjREAk4Uvj8ar2pZRTfsD32U/Mx9jy/AgT4PTCnIqOeXDKt1tGqNb2tq1qU9M452A9qXCJWW1YEyOKPQDNK6dHxzhQ+qzZ0V4moS7B8hLEeIcAWYJ6gHm6N1aadfHHaso4KJdqnZR25QoBiHQadCDyCiKEb5mwFqxsigZyemIbx1WnggVXrzV+KotHeNRxVpN/xHrBQUG2tsVpHiZx2PeNzEHfzDr1CgOzqUw/8WmCNbpizRWnrJ46vzOl5bKgPdAF36+vNFSius+MIw1wa+4fAncBdiVhwj6OlPtmlBKm3fZqvU2QRiRcULBpW/P1FJZlHdcN0dEYQrQ/siUYC87EObe7Aqv5RKHTa9zghEQvOd2r8eDL1BUEeBV7EpTpIXvUBDoZu4AHg5mgk4DgzVjfMnCt9OPABDlhZJEfDj7HHdDm5l8IpaycwF3QA9wG3RyOBHf0gwkn2juHCA907BwLsBx4H5hyqssgBDH8EVgLpDJyXwnGFAF4WMYaxFDhv6IbZpBumIwlWNBJ4DZgEfAlYY2/TnGzp1gBfQjKTnBp/erJrSDyZasLSItyAu3WQymYF6IutwC0KljVEAl0OV4NsB5F5WLUI1QFWAAE22FvMZ5xWFokvS9UieSuFM+hfAQfCZmAuSh6NWlvC3GMIxr5KIdPTQ6gPATYBzYisTDSGHPUImpZMVSn4FjAHGJen3+kT4BBL9KvATZkK/nvSaQFHT+rKDelqJTJFhJk2ARaIkuWtU0OOopMz2rq0jJLz7ZXli3meT58AORLheay4+wtO08UeW2eGn39jH3dPCXY4e+K7lELOtvfyXy7QPJZ1JDCfBP4K8BzwpG6kb1KS+UNDfXVORPjmGc5k4/G2lEJxCsg84BuUQc+lcmkapQEXgBii1HLdMMfm+wbxZGosiuVY4tILymXu3FgBTCw1jBtboSqsusPf1A2zFVgYjQTeH6Dh/46PexPVumibLnvuSnsbaG/DjrHf05eB6/q7xYj8R7S+2lEvn+nJ1DCB72P1JjrMxTGbWAmn8/sTdfQkAXoR4WSs6NwFuKvA3Q7cilKJ6PiqzkMYPiRW5fAfA0e6OMb9WGVl5iRiwY1lEwj6xF58Q7cSUTl398wzenr5RCMB82+X+sL1JsphJ7MWmC3Ib1pjIVfrHRRNXmVH586z99CnuzyWjVjpYo8/+/p+MpnC9iY6iOFfwYo6Pt3fesYlS4AeIrySriQjk7CiaMe7aQARXrYDQWe6PBebgLlKk18uvTJU1M7knhFYrtyQrlEiU7AKL3zWHQa4mhcA8C6wAGF5ojH4V68EUjyFVevNOlFcjVWI4fAyIcBfgJ8CP0vEgnu9NN+elVjrhnk41lHqd4G6EiXAXuBeBYuWxoJ/8eI8q8IbMj0U5PNK1G8b6qukH0T4LJZUegp5bixVQAJ0A8tBWhKx0LtOv9yY7FIacprAm62xYEG7mrnRm28Y8KIoeUg3TMdOXjQSeDcaCczAOm17BNiHd7HPHuMXE7HgjP4YP55MHa8hDwEvKlTBRa5uxbMrsfL8XtUN8z7dMI/uBxE2CepSrCKMT+GtdLGMPaazRKlLE7HgJqcXmJZMHR1Ppu7DOua+GJcO6tw+DazG6gB+mW6Y9wKLopFAzq3SJkaqBDD09enzUeJKe9kc9vIvA7NFaG9tDDp+mdgt9LK+juvSsWLrAXZmveNoJOC4VdoqI10hyIVY4eWTXPYBXgPmINrjiUbnJV3sFnrZ3c6ntdAbVIKQPwO3oFgWHR9wvD/WN5gBhO9gSa+PKTAB3gZuFpGftzaGHJ/WxdtSNage3eBnDvLRQakI+l9gniCPTIxUO3b27JIz07FKzhyZZwJsB25DWJpoDDpOPom3pirRuBgr9Pv3OXxl0ErCBPgdMKc/ej/r1dA9TFA/AK7jIEe5ORJgD3CXwJ2tseCHTsfSSzc4F/gHB3M+6DWBvfR+8kI0Ut2fGMJRWGKORj5FzHEIAnQBbcDCRCz4nnPnrkshA9INDnpNYC+9n3pSN8w5ouT3E8fnToRoJPAecJ1umHdZROJSDl1yJg08hCXIcNyexu4bcCoicykB3WAp6NpsvR/rlaj7+6P3i0YCWxCZAqqnl88B9vJPKKjXYEo/jT8WuB9YT4noBktJFVyFlVw5STfMJKiF0UhVztW2opZS+FXdMC/CKjWTXZr5+FWjXlgaq3W+l29LjUa5V91ssBIgi1rgGpDLdcO8B7gjGgnscrAaCPA/+jpzgij+VVOwH37d2o+6vPFkajj9bBzppfesV53AXNHTOjYaqepwY9Liya6wXeF0wK1jfSdw4DjCIoBcoxtmC8KKaH2gIC3mpi3rqlYik0Hy3jzafwUMHGOABIrv64bZrGlKvyhPLeamt3VWiFJRRJopcPv4siOAskQRWwC3mjudCDySyVgFqIDV0UigXyeH2UJOQlEKOW0B2euCfQoPfYOZz7x5J+gpD69gXUOOyaPTl6WUSNHKx28FbgGWJWLBrrIgQA8RjO4hoK7Fqug1wsVbW+XhodmuHHKwp/4kLIm42+Xjd2JVHrs7EQt+5NZNi9MwwjBH2h70Vbh7Bt5T7CkaCbzdx/A5F5fKMzqAJShuT0wNfuC2LYrcMMIcg6X3m0ye9X6HQCeQELj16T/sAysNLA6EXBxDN7ACoSXRGHynWDbwSsOIE+xlN+rmzkSE3fZh0FAXf+4+QAeaE7HgG8Wee0/EqqORwBt2/d+zgKdxT+831P7nlkP6tP0bL/GC8T2zAvRxFBUoV/R+LiWG9OgGFbQvjQU91fXcs4khvfR+zRQoadMFAmwEmvurGxzUBOjlHwSwCkvkPW27gASw09DlwUQsZHp5fj1PgCxWGmZQWZLyHwGjPEqAbcBtAktbY8FUKcxryRCgZ0XYYA5D+B5W6ZahHiHAbmAxsDjRD92gT4B+vRrSo0CyxZuCRSJACmjF0g1uK8V5LFkC9PIRjrX9g2/jMII3AAKYwC+wdINvlfL8lTwBehHBcQGqfhCgKIWcColyKRRJNBLYmBGZiKXza8dZefhc9vLt9rUnlovxy2oF6LNj0JRVHn4+BylAlcMKkC3kNJt+lI/3CVBsImxIVyprVWjmUwpQHYIAm4BmQVa2xkL7ynWOypoAH28d09WIXIF18nj0IQjwJ6AF1P2JWG13uc/NoCBAL0cxjJWHfwMwsg8BPgAWgdybiIU6BsucDCoC9CLCCOB6Ea6xCXCPwB2tseBOfAwePLbOHH318q7R/kz48OHDhw8fPnz48OHDhw8fPnz48OGjvPH//ll3Tpw8Ld0AAAAASUVORK5CYII=;" vertex="1" parent="1">
          <mxGeometry x="430" y="280" width="40" height="40" as="geometry" />
        </mxCell>
        <mxCell id="74tmJSUXC4xOxbuBVqUL-13" value="" style="endArrow=classic;html=1;rounded=0;" edge="1" parent="1">
          <mxGeometry width="50" height="50" relative="1" as="geometry">
            <mxPoint x="240" y="280" as="sourcePoint" />
            <mxPoint x="410" y="280" as="targetPoint" />
          </mxGeometry>
        </mxCell>
        <mxCell id="74tmJSUXC4xOxbuBVqUL-14" value="Check database&lt;br&gt;for latest version" style="edgeLabel;html=1;align=center;verticalAlign=middle;resizable=0;points=[];" vertex="1" connectable="0" parent="74tmJSUXC4xOxbuBVqUL-13">
          <mxGeometry x="-0.2047" y="-1" relative="1" as="geometry">
            <mxPoint x="12" y="-1" as="offset" />
          </mxGeometry>
        </mxCell>
        <mxCell id="74tmJSUXC4xOxbuBVqUL-15" value="" style="endArrow=classic;html=1;rounded=0;" edge="1" parent="1">
          <mxGeometry width="50" height="50" relative="1" as="geometry">
            <mxPoint x="410" y="299.5" as="sourcePoint" />
            <mxPoint x="240" y="299.5" as="targetPoint" />
          </mxGeometry>
        </mxCell>
        <mxCell id="74tmJSUXC4xOxbuBVqUL-16" value="x.y.z" style="edgeLabel;html=1;align=center;verticalAlign=middle;resizable=0;points=[];" vertex="1" connectable="0" parent="74tmJSUXC4xOxbuBVqUL-15">
          <mxGeometry x="0.3224" y="1" relative="1" as="geometry">
            <mxPoint x="22" as="offset" />
          </mxGeometry>
        </mxCell>
        <mxCell id="74tmJSUXC4xOxbuBVqUL-17" value="" style="endArrow=classic;html=1;rounded=0;" edge="1" parent="1">
          <mxGeometry width="50" height="50" relative="1" as="geometry">
            <mxPoint x="240" y="360" as="sourcePoint" />
            <mxPoint x="460" y="360" as="targetPoint" />
          </mxGeometry>
        </mxCell>
        <mxCell id="74tmJSUXC4xOxbuBVqUL-18" value="If changes, then send email" style="edgeLabel;html=1;align=center;verticalAlign=middle;resizable=0;points=[];" vertex="1" connectable="0" parent="74tmJSUXC4xOxbuBVqUL-17">
          <mxGeometry x="-0.3855" y="2" relative="1" as="geometry">
            <mxPoint x="22" as="offset" />
          </mxGeometry>
        </mxCell>
      </root>
    </mxGraphModel>
  </diagram>
</mxfile>
